<svg aria-hidden="true" style="position: absolute; width: 0; height: 0; overflow: hidden;" version="1.1" xmlns="http://www.w3.org/2000/svg" xmlns:xlink="http://www.w3.org/1999/xlink">
<defs>
<symbol id="icon-bold-arrow" viewBox="0 0 32 32">
<path d="M24.196 4.571l-22.742 22.742c-0.893 0.893-0.893 2.34 0 3.233s2.34 0.893 3.232 0l22.742-22.742v12.768c0 1.262 1.023 2.286 2.286 2.286s2.286-1.023 2.286-2.286v-16c0-2.525-2.047-4.571-4.571-4.571h-16c-1.262 0-2.286 1.023-2.286 2.286s1.023 2.286 2.286 2.286h12.768z"></path>
</symbol>
<symbol id="icon-Ellipse-7" viewBox="0 0 32 32">
<path fill="#6a8bff" style="fill: var(--color1, #6a8bff)" opacity="0.6" d="M32 16c0 8.837-7.163 16-16 16s-16-7.163-16-16c0-8.837 7.163-16 16-16s16 7.163 16 16z"></path>
</symbol>
<symbol id="icon-triangle" viewBox="0 0 28 31">
<path fill="#fff" style="fill: var(--color3, #fff)" d="M11.891 12.297l-6.802 3.902v13.257l4.427 2.529 3.876-2.24c0.329 0.217 0.768 0.217 1.134 0.034 0.549-0.325 0.768-1.012 0.439-1.553-0.156-0.258-0.406-0.447-0.699-0.527s-0.606-0.047-0.874 0.094c-0.366 0.217-0.585 0.614-0.549 1.011l-3.328 1.88-2.743-1.553 6.254-3.576 1.097 0.65 1.646 0.939 1.097 0.614 11.044-6.285c0.329 0.217 0.768 0.217 1.17 0 0.549-0.289 0.731-0.976 0.402-1.517-0.156-0.258-0.406-0.447-0.699-0.527s-0.606-0.047-0.874 0.094c-0.366 0.217-0.549 0.614-0.549 1.011l-8.558 4.841-1.939 1.12-6.985-4.010v-2.925l6.802 3.901 0.731-0.397 11.080-6.322v-0.433l-0.183-4.336-3.877-2.202c0-0.216-0.073-0.397-0.146-0.578-0.112-0.197-0.281-0.356-0.484-0.458s-0.433-0.142-0.66-0.115-0.44 0.12-0.613 0.267c-0.173 0.147-0.298 0.341-0.36 0.559s-0.056 0.448 0.015 0.662c0.071 0.214 0.205 0.403 0.385 0.542s0.397 0.222 0.625 0.239c0.228 0.017 0.455-0.033 0.654-0.144v-0.034l3.364 1.915 0.11 3.034-6.4-3.647v-4.23l-11.008-6.285c0-0.217-0.073-0.397-0.183-0.578-0.293-0.542-0.987-0.723-1.536-0.434-0.267 0.149-0.463 0.396-0.545 0.687s-0.044 0.603 0.106 0.867c0.15 0.263 0.4 0.457 0.695 0.538s0.61 0.043 0.877-0.105v-0.034l6.875 3.937 3.619 2.056v7.767l-2.377 1.373v-7.803l-11.629-6.611-4.423 2.529v4.407l-0.035 0.034c-0.512 0.289-0.731 0.976-0.402 1.517 0.156 0.258 0.406 0.447 0.699 0.527s0.606 0.047 0.874-0.094c0.13-0.075 0.244-0.175 0.335-0.294s0.157-0.255 0.194-0.399c0.037-0.145 0.045-0.295 0.024-0.442s-0.073-0.289-0.151-0.417c-0.107-0.178-0.258-0.327-0.439-0.434v-3.755l2.596-1.48v7.116l-0.805 0.47-1.792 1.011-1.097 0.65v12.571h-0.035c-0.512 0.325-0.731 1.011-0.402 1.553 0.076 0.129 0.177 0.241 0.298 0.331s0.258 0.155 0.404 0.192c0.146 0.037 0.299 0.045 0.448 0.023s0.293-0.072 0.422-0.149c0.548-0.289 0.731-0.975 0.402-1.517-0.107-0.178-0.258-0.327-0.439-0.433v-11.958l6.839-3.865 2.556 1.445zM6.186 16.848l6.253-3.576v2.925l-3.692 2.095v4.842l3.145 1.77-5.705 3.251-0.001-11.307zM16.316 17.751l-2.743-1.553v-4.191l-4.242-2.456-3.145 1.806v-6.719l10.13 5.781v7.332zM10.428 18.618l2.597-1.48 3.657 2.131 4.242-2.42v-3.578l5.886 3.323-10.128 5.599-6.254-3.576z"></path>
</symbol>
<symbol id="icon-red-arrow" viewBox="0 0 22 32">
<path fill="#ff2b77" style="fill: var(--color4, #ff2b77)" d="M19.776 17.284c0.792-0.673 0.792-1.895 0-2.568l-15.469-13.134c-1.094-0.929-2.774-0.151-2.774 1.284v26.268c0 1.435 1.68 2.213 2.774 1.284l15.469-13.134z"></path>
</symbol>
<symbol id="icon-blue-arrow" viewBox="0 0 20 32">
<path fill="#0a6fff" style="fill: var(--color5, #0a6fff)" d="M18.649 17.296c0.811-0.673 0.811-1.919 0-2.592l-15.889-13.187c-1.098-0.911-2.76-0.13-2.76 1.296v26.374c0 1.426 1.662 2.207 2.76 1.296l15.889-13.187z"></path>
</symbol>
<symbol id="icon-point-in-rectangle" viewBox="0 0 16 32">
<path fill="none" stroke="#e9e9e9" style="stroke: var(--color6, #e9e9e9)" stroke-linejoin="miter" stroke-linecap="round" stroke-miterlimit="4" stroke-width="10.6667" d="M8 5.333v21.333"></path>
</symbol>
<symbol id="icon-rectangle" viewBox="0 0 19 32">
<path fill="none" stroke="#e9e9e9" style="stroke: var(--color6, #e9e9e9)" stroke-linejoin="miter" stroke-linecap="butt" stroke-miterlimit="4" stroke-width="2.2069" d="M9.379 1.103c4.571 0 8.276 3.705 8.276 8.276v13.241c0 4.571-3.705 8.276-8.276 8.276s-8.276-3.705-8.276-8.276v-13.241c0-4.571 3.705-8.276 8.276-8.276z"></path>
</symbol>
<symbol id="icon-blue-arrow-down" viewBox="0 0 50 32">
<path fill="none" stroke="#1556ee" style="stroke: var(--color7, #1556ee)" stroke-linejoin="miter" stroke-linecap="round" stroke-miterlimit="4" stroke-width="7.1111" d="M43.556 6.222l-19.556 19.556-19.556-19.556"></path>
</symbol>
<symbol id="icon-point-2-desk" viewBox="0 0 32 32">
<path fill="#45b1ff" style="fill: var(--color1, #45b1ff)" opacity="0.6" d="M28.8 16c0 7.069-5.731 12.8-12.8 12.8s-12.8-5.731-12.8-12.8c0-7.069 5.731-12.8 12.8-12.8s12.8 5.731 12.8 12.8z"></path>
</symbol>
<symbol id="icon-point-1-desk" viewBox="0 0 32 32">
<path fill="#6a8bff" style="fill: var(--color2, #6a8bff)" opacity="0.6" d="M28.8 16c0 7.069-5.731 12.8-12.8 12.8s-12.8-5.731-12.8-12.8c0-7.069 5.731-12.8 12.8-12.8s12.8 5.731 12.8 12.8z"></path>
</symbol>
<symbol id="icon-point-2-phone" viewBox="0 0 35 32">
<path fill="#a66aff" style="fill: var(--color3, #a66aff)" opacity="0.6" d="M29.631 15.488c0 6.753-5.474 12.227-12.227 12.227s-12.227-5.474-12.227-12.227c0-6.753 5.474-12.227 12.227-12.227s12.227 5.474 12.227 12.227z"></path>
</symbol>
<symbol id="icon-point-1-phone" viewBox="0 0 35 32">
<path fill="#6a8bff" style="fill: var(--color2, #6a8bff)" opacity="0.6" d="M30.26 16.712c0 6.753-5.474 12.227-12.227 12.227s-12.227-5.474-12.227-12.227c0-6.753 5.474-12.227 12.227-12.227s12.227 5.474 12.227 12.227z"></path>
</symbol>
</defs>
</svg>
